Coordinates
version=1
nRows=22
nColumns=24
inDegrees=yes

Units are S.I. units (second, meters, Newtons, ...)
Angles are in degrees.

endheader
time	pelvis_tilt	pelvis_list	pelvis_rotation	pelvis_tx	pelvis_ty	pelvis_tz	hip_flexion_r	hip_adduction_r	hip_rotation_r	knee_angle_r	ankle_angle_r	subtalar_angle_r	mtp_angle_r	hip_flexion_l	hip_adduction_l	hip_rotation_l	knee_angle_l	ankle_angle_l	subtalar_angle_l	mtp_angle_l	lumbar_extension	lumbar_bending	lumbar_rotation
      3.50500000	    -14.99899063	    -11.99189106	      1.64222315	     -2.31626307	     -0.04084542	      0.45735292	     33.84092860	     15.20852316	      3.15998122	    -19.89118223	     -7.08325952	     -7.02249965	      3.25518150	     16.31981325	    -12.72934434	      3.56503381	    -56.36366213	    -24.95412942	      5.44809672	     26.10595640	      9.01662023	     12.07379085	     -1.75160404
      3.51000000	    -14.96313610	    -11.95136647	      1.55068804	     -2.30870277	     -0.03979052	      0.45812781	     33.18951648	     15.35243361	      3.37880800	    -19.72528260	     -6.66590757	     -7.08157016	      3.13915456	     17.36353966	    -12.82269265	      3.36752993	    -57.58015347	    -24.77766183	      3.56688130	     24.61803093	      8.99602500	     11.97558800	     -1.50801578
      3.51500000	    -14.92188437	    -11.90083335	      1.48725706	     -2.30113946	     -0.03868161	      0.45887461	     32.50626321	     15.47225762	      3.63006510	    -19.50807840	     -6.32663856	     -7.21472247	      3.07508842	     18.41157120	    -12.90148642	      3.19894788	    -58.71565426	    -24.54369460	      1.84420780	     23.03447642	      8.98957303	     11.85817647	     -1.29083416
      3.52000000	    -14.87717053	    -11.82921215	      1.43261944	     -2.29359059	     -0.03753764	      0.45961946	     31.80914551	     15.56693642	      3.89956620	    -19.27782870	     -6.01048662	     -7.36857079	      2.99745369	     19.44764588	    -12.96125050	      3.03203824	    -59.74819507	    -24.23240021	      0.30049538	     21.47193665	      8.98299360	     11.71457866	     -1.09612667
      3.52500000	    -14.82779325	    -11.73801747	      1.38647888	     -2.28603454	     -0.03635458	      0.46034086	     31.08972581	     15.63816486	      4.20469069	    -19.02694193	     -5.71267118	     -7.54604208	      2.86128182	     20.46333802	    -12.99685724	      2.87738862	    -60.66763779	    -23.85516279	     -1.04979919	     20.00367866	      8.98101459	     11.54930533	     -0.90978337
      3.53000000	    -14.76939008	    -11.60218272	      1.36045757	     -2.27854380	     -0.03512448	      0.46106156	     30.34967131	     15.66268559	      4.58693653	    -18.76417910	     -5.44875017	     -7.79131823	      2.65512766	     21.45661597	    -12.96827965	      2.76186082	    -61.46024937	    -23.49385329	     -2.23091863	     18.79507531	      8.96752268	     11.32792633	     -0.74498464
      3.53500000	    -14.70408617	    -11.50108665	      1.30875964	     -2.27096207	     -0.03389901	      0.46172520	     29.58393888	     15.72145427	      4.94676021	    -18.48290014	     -5.15279572	     -7.95254076	      2.35539675	     22.41197944	    -12.98681287	      2.62390634	    -62.16969583	    -22.87322498	     -3.09316638	     17.50272570	      8.96578319	     11.16262918	     -0.52454775
      3.54000000	    -14.64498998	    -11.33777690	      1.27301054	     -2.26345379	     -0.03262614	      0.46241419	     28.81159684	     15.71969344	      5.38996684	    -18.17468908	     -4.99028738	     -8.30625025	      2.08387716	     23.33575736	    -12.91823085	      2.52903738	    -62.68360976	    -22.45763382	     -3.95594407	     17.00115026	      8.96509014	     10.91935156	     -0.33951010
      3.54500000	    -14.54289592	    -11.16962455	      1.20994090	     -2.25593440	     -0.03133482	      0.46305122	     27.98845981	     15.71731559	      5.86807559	    -17.89017081	     -4.69740247	     -8.49250473	      1.65286446	     24.18522749	    -12.85884802	      2.37300531	    -63.14570416	    -21.68608644	     -4.43046706	     16.12871921	      8.92030624	     10.69459763	     -0.12200580
      3.55000000	    -14.47718904	    -10.89542134	      1.17378307	     -2.24848223	     -0.02999570	      0.46366452	     27.19871100	     15.58627692	      6.33922744	    -17.58395141	     -4.48743284	     -8.76090256	      1.38070070	     25.01840395	    -12.63293199	      2.30759709	    -63.40497816	    -21.02892624	     -4.76030749	     15.99564457	      8.91067715	     10.34327254	      0.09363780
      3.55500000	    -14.34119335	    -10.67982311	      1.12597860	     -2.24094139	     -0.02861967	      0.46425875	     26.31083410	     15.52011047	      6.84301398	    -17.26003244	     -4.21643720	     -8.97590144	      0.80990732	     25.75214007	    -12.49915390	      2.17786641	    -63.59321717	    -20.13933002	     -4.86287147	     15.68836796	      8.84645754	     10.07075075	      0.29171986
      3.56000000	    -14.27816870	    -10.35176951	      1.10074059	     -2.23362958	     -0.02730376	      0.46475427	     25.53959577	     15.29941790	      7.28396887	    -16.96778914	     -3.96173731	     -9.14017246	      0.65625398	     26.54368105	    -12.18358122	      2.10669858	    -63.63712619	    -19.39513582	     -4.95267318	     15.87576402	      8.82738661	      9.68142950	      0.49153891
      3.56500000	    -14.13748197	    -10.05093692	      0.99450869	     -2.22618381	     -0.02587586	      0.46537976	     24.62995197	     15.14576964	      7.85576114	    -16.61469239	     -3.74918022	     -9.30086275	      0.28308184	     27.17151925	    -11.95390477	      1.95333371	    -63.55399032	    -18.45129216	     -4.71394183	     16.15626147	      8.73987206	      9.33619641	      0.81010728
      3.57000000	    -14.02922588	     -9.67791158	      0.93730257	     -2.21882670	     -0.02445549	      0.46587622	     23.77893682	     14.86987525	      8.29291277	    -16.27499708	     -3.51600502	     -9.38169874	      0.02738075	     27.81454908	    -11.59351508	      1.83526315	    -63.35114895	    -17.54149403	     -4.44560879	     16.50685427	      8.68617826	      8.91431756	      1.07108697
      3.57500000	    -13.90338031	     -9.30061333	      0.86587695	     -2.21151449	     -0.02306113	      0.46637214	     22.90589884	     14.58168435	      8.73522349	    -15.92291390	     -3.25601048	     -9.40791820	     -0.18753417	     28.41282761	    -11.22817468	      1.70750108	    -63.05828623	    -16.60156131	     -4.05849678	     16.93741433	      8.60838881	      8.49612274	      1.33535256
      3.58000000	    -13.76126603	     -8.92577487	      0.78335124	     -2.20420270	     -0.02168563	      0.46687768	     22.00034763	     14.28472545	      9.16955669	    -15.53498695	     -2.96234027	     -9.36639446	     -0.37148180	     28.96445492	    -10.86368258	      1.58123895	    -62.67314079	    -15.66732003	     -3.57067763	     17.41699134	      8.51303775	      8.08538412	      1.59643433
      3.58500000	    -13.59032720	     -8.53564403	      0.72387390	     -2.19691700	     -0.02029620	      0.46731675	     21.06884050	     13.94824085	      9.53058986	    -15.13887131	     -2.67565096	     -9.28834023	     -0.59210986	     29.45935180	    -10.45859265	      1.47189938	    -62.18818497	    -14.75732729	     -3.05227339	     17.91765203	      8.39073632	      7.66054219	      1.82328044
      3.59000000	    -13.49575540	     -8.12429636	      0.61189835	     -2.18969666	     -0.01906088	      0.46776195	     20.23530465	     13.58235315	      9.87319522	    -14.75431895	     -2.36493477	     -9.10094223	     -0.57692028	     30.01678483	    -10.03605998	      1.32974274	    -61.64369776	    -13.90592414	     -2.51623116	     18.36038477	      8.34238213	      7.23086284	      2.14369564
      3.59500000	    -13.36926568	     -7.72315998	      0.51319841	     -2.18247419	     -0.01785190	      0.46817260	     19.36671648	     13.21051457	     10.16713175	    -14.34871122	     -2.07055384	     -8.90530503	     -0.52664233	     30.52015400	     -9.61111572	      1.21038473	    -61.02167854	    -13.07932264	     -1.93908549	     18.79011716	      8.26426552	      6.80767927	      2.42429260
      3.60000000	    -13.25924770	     -7.32504473	      0.40805947	     -2.17525074	     -0.01674403	      0.46856257	     18.53050704	     12.83371989	     10.40642176	    -13.95440315	     -1.78988612	     -8.70880509	     -0.43909919	     31.02346564	     -9.18462142	      1.08477366	    -60.33456736	    -12.29762958	     -1.39410715	     19.16652084	      8.20694868	      6.39543089	      2.69998590
      3.60500000	    -13.13648375	     -6.94940012	      0.30017052	     -2.16802693	     -0.01571185	      0.46890653	     17.68122115	     12.46951468	     10.65267617	    -13.55019065	     -1.50728218	     -8.49315792	     -0.31880025	     31.50269599	     -8.77533657	      0.97631885	    -59.59491256	    -11.56753477	     -0.83218294	     19.50088708	      8.14051904	      6.01288897	      2.97849725
      3.61000000	    -13.01584751	     -6.59247617	      0.18543608	     -2.16081124	     -0.01478468	      0.46921396	     16.84841805	     12.12034292	     10.88897314	    -13.16119894	     -1.23844974	     -8.29633938	     -0.18757945	     31.97256227	     -8.38183577	      0.87433272	    -58.80458232	    -10.88501067	     -0.30124620	     19.77197683	      8.07646000	      5.65829328	      3.25685518
